<?xml version="1.0" standalone="no"?>
<!DOCTYPE svg PUBLIC "-//W3C//DTD SVG 1.1//EN" "https://www.w3.org/Graphics/SVG/1.1/DTD/svg11.dtd">

<svg width="390" height="390" version="1.1" xmlns="http://www.w3.org/2000/svg">

	<polygon stroke="#ffffff" stroke-width="1" points="10.000,10.000 28.787,28.787"/>
	<polygon fill="#ffffff" stroke-width="1" points="28.787,28.787 19.191,25.971 25.971,19.191"/>
	<path stroke="#ffffff" stroke-width="1" fill="none" d="M 55.357,79.516 A 757.500,757.500 0 0 1 55.357,320.484"/>
	<polygon fill="#ffffff" stroke-width="1" points="55.357,320.484 52.019,311.057 61.486,312.583"/>
	<text fill="#ffffff" stroke="#ffffff" x="72.000" y="203.500" font-family="Courier New" font-size="14">e</text>
	<path stroke="#ffffff" stroke-width="1" fill="none" d="M 44.643,320.484 A 757.500,757.500 0 0 1 44.643,79.516"/>
	<polygon fill="#ffffff" stroke-width="1" points="44.643,79.516 47.981,88.943 38.514,87.417"/>
	<text fill="#ffffff" stroke="#ffffff" x="19.600" y="203.500" font-family="Courier New" font-size="14">d</text>
	<path stroke="#ffffff" stroke-width="1" fill="none" d="M 130.121,170.460 A 241.875,241.875 0 0 1 179.440,71.821"/>
	<polygon fill="#ffffff" stroke-width="1" points="179.440,71.821 177.516,81.634 170.143,75.503"/>
	<text fill="#ffffff" stroke="#ffffff" x="134.866" y="116.783" font-family="Courier New" font-size="14">c</text>
	<path stroke="#ffffff" stroke-width="1" fill="none" d="M 194.879,79.540 A 241.875,241.875 0 0 1 145.560,178.179"/>
	<polygon fill="#ffffff" stroke-width="1" points="145.560,178.179 147.484,168.366 154.857,174.497"/>
	<text fill="#ffffff" stroke="#ffffff" x="181.734" y="140.217" font-family="Courier New" font-size="14">d</text>
	<path stroke="#ffffff" stroke-width="1" fill="none" d="M 62.367,78.282 A 20.000,20.000 0 1 1 37.633,78.282"/>
	<polygon fill="#ffffff" stroke-width="1" points="37.633,78.282 35.119,87.961 28.130,81.396"/>
	<text fill="#ffffff" stroke="#ffffff" x="45.800" y="124.500" font-family="Courier New" font-size="14">a</text>
	<path stroke="#ffffff" stroke-width="1" fill="none" d="M 79.516,44.643 A 757.500,757.500 0 0 1 320.484,44.643"/>
	<polygon fill="#ffffff" stroke-width="1" points="320.484,44.643 311.057,47.981 312.583,38.514"/>
	<text fill="#ffffff" stroke="#ffffff" x="195.800" y="27.300" font-family="Courier New" font-size="14">b</text>
	<path stroke="#ffffff" stroke-width="1" fill="none" d="M 112.633,171.718 A 20.000,20.000 0 1 1 137.367,171.718"/>
	<polygon fill="#ffffff" stroke-width="1" points="137.367,171.718 139.881,162.039 146.870,168.604"/>
	<text fill="#ffffff" stroke="#ffffff" x="120.800" y="132.500" font-family="Courier New" font-size="14">3</text>
	<ellipse stroke="#ffffff" stroke-width="1" fill="none" cx="50.000" cy="50.000" rx="30" ry="30"/>
	<text fill="#ffffff" stroke="#ffffff" x="43.400" y="55.500" font-family="Courier New" font-size="22">A</text>
	<ellipse stroke="#ffffff" stroke-width="1" fill="none" cx="50.000" cy="350.000" rx="30" ry="30"/>
	<text fill="#ffffff" stroke="#ffffff" x="43.400" y="355.500" font-family="Courier New" font-size="22">D</text>
	<ellipse stroke="#ffffff" stroke-width="1" fill="none" cx="125.000" cy="200.000" rx="30" ry="30"/>
	<text fill="#ffffff" stroke="#ffffff" x="118.400" y="205.500" font-family="Courier New" font-size="22">C</text>
	<ellipse stroke="#ffffff" stroke-width="1" fill="none" cx="200.000" cy="50.000" rx="30" ry="30"/>
	<text fill="#ffffff" stroke="#ffffff" x="186.800" y="55.500" font-family="Courier New" font-size="22">hr</text>
	<ellipse stroke="#ffffff" stroke-width="1" fill="none" cx="350.000" cy="50.000" rx="30" ry="30"/>
	<ellipse stroke="#ffffff" stroke-width="1" fill="none" cx="350.000" cy="50.000" rx="25" ry="25"/>
	<text fill="#ffffff" stroke="#ffffff" x="343.400" y="55.500" font-family="Courier New" font-size="22">B</text>
</svg>