<?xml version="1.0" standalone="no"?>
<!DOCTYPE svg PUBLIC "-//W3C//DTD SVG 1.1//EN" "https://www.w3.org/Graphics/SVG/1.1/DTD/svg11.dtd">

<svg width="434" height="240" version="1.1" xmlns="http://www.w3.org/2000/svg">

	<polygon stroke="#ffffff" stroke-width="1" points="10.000,10.000 28.787,28.787"/>
	<polygon fill="#ffffff" stroke-width="1" points="28.787,28.787 19.191,25.971 25.971,19.191"/>
	<polygon fill="white" stroke-width="1" points="-5,0 0,5, 5,0"/>
	<polygon fill="white" stroke-width="1" points="45,0 50,5, 55,0"/>
	<polygon fill="white" stroke-width="1" points="95,0 100,5, 105,0"/>
	<polygon fill="white" stroke-width="1" points="145,0 150,5, 155,0"/>
	<polygon fill="white" stroke-width="1" points="195,0 200,5, 205,0"/>
	<polygon fill="white" stroke-width="1" points="245,0 250,5, 255,0"/>
	<polygon fill="white" stroke-width="1" points="295,0 300,5, 305,0"/>
	<polygon fill="white" stroke-width="1" points="345,0 350,5, 355,0"/>
	<polygon fill="white" stroke-width="1" points="395,0 400,5, 405,0"/>
	<polygon fill="white" stroke-width="1" points="0,-5 5,0, 0,5"/>
	<polygon fill="white" stroke-width="1" points="0,45 5,50, 0,55"/>
	<polygon fill="white" stroke-width="1" points="0,95 5,100, 0,105"/>
	<polygon fill="white" stroke-width="1" points="0,145 5,150, 0,155"/>
	<polygon fill="white" stroke-width="1" points="0,195 5,200, 0,205"/>
	<path stroke="#ffffff" stroke-width="1" fill="none" d="M 78.469,40.633 A 195.000,195.000 0 0 1 171.531,40.633"/>
	<polygon fill="#ffffff" stroke-width="1" points="171.531,40.633 161.865,43.195 164.153,33.883"/>

	<text fill="#ffffff" stroke="#ffffff" x="120.800" y="46.500" font-family="Courier New" font-size="14">b</text>
	<path stroke="#ffffff" stroke-width="1" fill="none" d="M 79.516,44.643 A 757.500,757.500 0 0 1 320.484,44.643"/>
	<polygon fill="#ffffff" stroke-width="1" points="320.484,44.643 311.057,47.981 312.583,38.514"/>

	<text fill="#ffffff" stroke="#ffffff" x="195.800" y="46.500" font-family="Courier New" font-size="14">a</text>
	<path stroke="#ffffff" stroke-width="1" fill="none" d="M 194.879,79.540 A 241.875,241.875 0 0 1 145.560,178.179"/>
	<polygon fill="#ffffff" stroke-width="1" points="145.560,178.179 147.484,168.366 154.857,174.497"/>

	<text fill="#ffffff" stroke="#ffffff" x="164.561" y="131.630" font-family="Courier New" font-size="14">a</text>
	<path stroke="#ffffff" stroke-width="1" fill="none" d="M 153.282,187.633 A 20.000,20.000 0 1 1 153.282,212.367"/>
	<polygon fill="#ffffff" stroke-width="1" points="153.282,212.367 162.961,214.881 156.396,221.870"/>
	<text fill="#ffffff" stroke="#ffffff" x="191.800" y="203.500" font-family="Courier New" font-size="14">a</text>
	<path stroke="#ffffff" stroke-width="1" fill="none" d="M 220.560,71.821 A 241.875,241.875 0 0 1 269.879,170.460"/>
	<polygon fill="#ffffff" stroke-width="1" points="269.879,170.460 263.184,163.032 272.512,160.812"/>

	<text fill="#ffffff" stroke="#ffffff" x="229.561" y="110.370" font-family="Courier New" font-size="14">b</text>
	<path stroke="#ffffff" stroke-width="1" fill="none" d="M 303.282,187.633 A 20.000,20.000 0 1 1 303.282,212.367"/>
	<polygon fill="#ffffff" stroke-width="1" points="303.282,212.367 312.961,214.881 306.396,221.870"/>
	<text fill="#ffffff" stroke="#ffffff" x="341.800" y="203.500" font-family="Courier New" font-size="14">b</text>
	<path stroke="#ffffff" stroke-width="1" fill="none" d="M 321.718,62.367 A 20.000,20.000 0 1 1 321.718,37.633"/>
	<polygon fill="#ffffff" stroke-width="1" points="321.718,37.633 312.039,35.119 318.604,28.130"/>
	<text fill="#ffffff" stroke="#ffffff" x="256.400" y="53.500" font-family="Courier New" font-size="14">a,b</text>
	<path stroke="red" stroke-width="1" fill="none" d="M 280.121,170.460 A 241.875,241.875 0 0 1 329.440,71.821"/>
	<polygon fill="red" stroke-width="1" points="329.440,71.821 327.516,81.634 320.143,75.503"/>

	<text fill="red" stroke="red" x="302.039" y="125.370" font-family="Courier New" font-size="14">a</text>
	<path stroke="#9f9f9f" stroke-width="1" fill="none" d="M 146.227,178.804 A 616.875,616.875 0 0 1 322.271,61.442"/>
	<polygon fill="#9f9f9f" stroke-width="1" points="322.271,61.442 316.178,69.371 312.306,60.599"/>

	<text fill="#9f9f9f" stroke="#9f9f9f" x="274.417" y="112.676" font-family="Courier New" font-size="14">b</text>
	<ellipse stroke="#ffffff" stroke-width="1" fill="none" cx="50.000" cy="50.000" rx="30" ry="30"/>
	<text fill="#ffffff" stroke="#ffffff" x="43.400" y="55.500" font-family="Courier New" font-size="22">A</text>
	<ellipse stroke="#ffffff" stroke-width="1" fill="none" cx="350.000" cy="50.000" rx="30" ry="30"/>
	<text fill="#ffffff" stroke="#ffffff" x="336.800" y="55.500" font-family="Courier New" font-size="22">hr</text>
	<ellipse stroke="#ffffff" stroke-width="1" fill="none" cx="200.000" cy="50.000" rx="30" ry="30"/>

	<ellipse stroke="#ffffff" stroke-width="1" fill="none" cx="200.000" cy="50.000" rx="25" ry="25"/>
	<text fill="#ffffff" stroke="#ffffff" x="193.400" y="55.500" font-family="Courier New" font-size="22">B</text>
	<ellipse stroke="#ffffff" stroke-width="1" fill="none" cx="125.000" cy="200.000" rx="30" ry="30"/>

	<ellipse stroke="#ffffff" stroke-width="1" fill="none" cx="125.000" cy="200.000" rx="25" ry="25"/>
	<text fill="#ffffff" stroke="#ffffff" x="118.400" y="205.500" font-family="Courier New" font-size="22">C</text>
	<ellipse stroke="#ffffff" stroke-width="1" fill="none" cx="275.000" cy="200.000" rx="30" ry="30"/>

	<ellipse stroke="#ffffff" stroke-width="1" fill="none" cx="275.000" cy="200.000" rx="25" ry="25"/>
	<text fill="#ffffff" stroke="#ffffff" x="268.400" y="205.500" font-family="Courier New" font-size="22">D</text>
</svg>