<?xml version="1.0" standalone="no"?>
<!DOCTYPE svg PUBLIC "-//W3C//DTD SVG 1.1//EN" "https://www.w3.org/Graphics/SVG/1.1/DTD/svg11.dtd">

<svg width="478" height="240" version="1.1" xmlns="http://www.w3.org/2000/svg">

	<polygon stroke="#ffffff" stroke-width="1" points="150.000,0.000 178.787,28.787"/>
	<polygon fill="#ffffff" stroke-width="1" points="178.787,28.787 169.191,25.971 175.971,19.191"/>
	<path stroke="#ffffff" stroke-width="1" fill="none" d="M 228.469,40.633 A 195.000,195.000 0 0 1 321.531,40.633"/>
	<polygon fill="#ffffff" stroke-width="1" points="321.531,40.633 311.865,43.195 314.153,33.883"/>
	<text fill="#ffffff" stroke="#ffffff" x="270.800" y="27.300" font-family="Courier New" font-size="14">a</text>
	<path stroke="#ffffff" stroke-width="1" fill="none" d="M 378.282,37.633 A 20.000,20.000 0 1 1 378.282,62.367"/>
	<polygon fill="#ffffff" stroke-width="1" points="378.282,62.367 387.961,64.881 381.396,71.870"/>
	<text fill="#ffffff" stroke="#ffffff" x="416.800" y="53.500" font-family="Courier New" font-size="14">a</text>
	<path stroke="#ffffff" stroke-width="1" fill="none" d="M 328.773,71.196 A 616.875,616.875 0 0 1 152.729,188.558"/>
	<polygon fill="#ffffff" stroke-width="1" points="152.729,188.558 158.822,180.629 162.694,189.401"/>
	<text fill="#ffffff" stroke="#ffffff" x="247.833" y="150.300" font-family="Courier New" font-size="14">b</text>
	<path stroke="#ffffff" stroke-width="1" fill="none" d="M 153.469,190.633 A 195.000,195.000 0 0 1 246.531,190.633"/>
	<polygon fill="#ffffff" stroke-width="1" points="246.531,190.633 236.865,193.195 239.153,183.883"/>
	<text fill="#ffffff" stroke="#ffffff" x="191.600" y="177.300" font-family="Courier New" font-size="14">\0</text>
	<ellipse stroke="#ffffff" stroke-width="1" fill="none" cx="200.000" cy="50.000" rx="30" ry="30"/>
	<text fill="#ffffff" stroke="#ffffff" x="193.400" y="55.500" font-family="Courier New" font-size="22">A</text>
	<ellipse stroke="#ffffff" stroke-width="1" fill="none" cx="350.000" cy="50.000" rx="30" ry="30"/>
	<text fill="#ffffff" stroke="#ffffff" x="336.800" y="55.500" font-family="Courier New" font-size="22">20</text>
	<ellipse stroke="#ffffff" stroke-width="1" fill="none" cx="125.000" cy="200.000" rx="30" ry="30"/>
	<text fill="#ffffff" stroke="#ffffff" x="111.800" y="205.500" font-family="Courier New" font-size="22">11</text>
	<ellipse stroke="#ffffff" stroke-width="1" fill="none" cx="275.000" cy="200.000" rx="30" ry="30"/>
	<ellipse stroke="#ffffff" stroke-width="1" fill="none" cx="275.000" cy="200.000" rx="25" ry="25"/>
	<text fill="#ffffff" stroke="#ffffff" x="261.800" y="205.500" font-family="Courier New" font-size="22">12</text>
</svg>